<svg xmlns="http://www.w3.org/2000/svg" width="50" height="50"><path fill="none" d="M-1-1h582v402H-1z"/><path fill="#D6001C" d="M49.875 18.847l-25-16.996-6.916 4.707V0h-5.925v10.584L-.125 18.847l2.24 3.215 5.633-3.831v26.574h34.254V18.23l5.633 3.832 2.24-3.215z"/><path fill="#fff" fill-rule="evenodd" d="M16.466 19.773v6.51c1.006-1.186 2.208-1.786 3.604-1.786.714 0 1.363.13 1.948.406.584.26 1.023.617 1.315 1.022.292.422.487.877.6 1.396.114.504.163 1.3.163 2.354v6.965h-3.133v-6.283c0-1.25-.05-2.029-.179-2.37a1.461 1.461 0 00-.633-.795c-.308-.195-.682-.293-1.12-.293-.52 0-.99.13-1.396.374-.406.26-.715.633-.893 1.152-.195.504-.292 1.267-.276 2.257v5.958h-3.117V19.757h3.117v.016zm12.321 0v6.51c1.007-1.186 2.208-1.786 3.604-1.786.715 0 1.364.13 1.948.406.585.26 1.007.617 1.3 1.022.291.422.486.877.6 1.396.113.504.162 1.3.162 2.354v6.965h-3.117v-6.283c0-1.25-.065-2.029-.178-2.37a1.46 1.46 0 00-.634-.795c-.292-.195-.681-.293-1.12-.293-.52 0-.99.13-1.396.374-.406.26-.698.633-.893 1.152-.194.504-.276 1.267-.276 2.257v5.958H25.67V19.757h3.117v.016z" clip-rule="evenodd"/></svg>